<svg xmlns="http://www.w3.org/2000/svg" width="800" height="360"><style>text{font-family:Arial,sans-serif;font-size:13px}.bar{fill:#276fbf}</style><text x="30" y="28">Case-level paired five-repetition success differences (N=96)</text><line x1="55" y1="300" x2="770" y2="300" stroke="#333"/>
<rect class="bar" x="70" y="90.0" width="38" height="210.0"/><text x="70" y="325">-1.0</text><text x="80" y="84.0">81</text>
<rect class="bar" x="134" y="292.2" width="38" height="7.8"/><text x="134" y="325">-0.8</text><text x="144" y="286.2">3</text>
<rect class="bar" x="198" y="292.2" width="38" height="7.8"/><text x="198" y="325">-0.6</text><text x="208" y="286.2">3</text>
<rect class="bar" x="262" y="297.4" width="38" height="2.6"/><text x="262" y="325">-0.4</text><text x="272" y="291.4">1</text>
<rect class="bar" x="326" y="300.0" width="38" height="0.0"/><text x="326" y="325">-0.2</text><text x="336" y="294.0">0</text>
<rect class="bar" x="390" y="279.3" width="38" height="20.7"/><text x="390" y="325">+0.0</text><text x="400" y="273.3">8</text>
<rect class="bar" x="454" y="300.0" width="38" height="0.0"/><text x="454" y="325">+0.2</text><text x="464" y="294.0">0</text>
<rect class="bar" x="518" y="300.0" width="38" height="0.0"/><text x="518" y="325">+0.4</text><text x="528" y="294.0">0</text>
<rect class="bar" x="582" y="300.0" width="38" height="0.0"/><text x="582" y="325">+0.6</text><text x="592" y="294.0">0</text>
<rect class="bar" x="646" y="300.0" width="38" height="0.0"/><text x="646" y="325">+0.8</text><text x="656" y="294.0">0</text>
<rect class="bar" x="710" y="300.0" width="38" height="0.0"/><text x="710" y="325">+1.0</text><text x="720" y="294.0">0</text>
</svg>